Coordinates
version=1
nRows=19
nColumns=24
inDegrees=yes

Units are S.I. units (second, meters, Newtons, ...)
Angles are in degrees.

endheader
time	pelvis_tilt	pelvis_list	pelvis_rotation	pelvis_tx	pelvis_ty	pelvis_tz	hip_flexion_r	hip_adduction_r	hip_rotation_r	knee_angle_r	ankle_angle_r	subtalar_angle_r	mtp_angle_r	hip_flexion_l	hip_adduction_l	hip_rotation_l	knee_angle_l	ankle_angle_l	subtalar_angle_l	mtp_angle_l	lumbar_extension	lumbar_bending	lumbar_rotation
      3.06000000	    -11.93983275	     -2.08356469	      6.76213699	     -1.76478213	     -0.03863568	     -0.23997462	     37.78557507	     -4.14797259	    -12.34604500	    -10.67396853	     -1.52891383	      0.33225503	     14.76559085	     -4.27820034	     -0.74911054	      1.19882399	    -14.94418955	      8.86868476	     -1.47698959	      0.14249875	      5.83766683	      3.77093908	    -12.47768151
      3.06500000	    -12.06964869	     -2.17240387	      6.87992879	     -1.75617328	     -0.03949451	     -0.23944443	     37.81175751	     -4.10649456	    -12.35899517	    -11.22176451	     -1.52710360	      0.56861092	     14.89391928	     -4.32147326	     -1.01824045	      1.03159973	    -15.49957049	      8.47350333	     -0.85715355	      0.21795750	      6.14766334	      3.84007963	    -12.58756510
      3.07000000	    -12.15506151	     -2.31994773	      6.97716951	     -1.74744376	     -0.04027297	     -0.23884286	     37.75683563	     -3.97514198	    -12.34784910	    -11.73750569	     -1.72391084	      0.64564079	     15.03166244	     -4.39657029	     -1.36903775	      0.80929562	    -16.07380793	      8.04221546	     -0.18597135	      0.36713163	      6.43140268	      3.97474032	    -12.68183133
      3.07500000	    -12.16880510	     -2.46742066	      6.96462011	     -1.73867311	     -0.04096840	     -0.23796855	     37.60167894	     -3.72888108	    -12.08663387	    -12.17377643	     -2.27153035	      0.36558371	     15.49026834	     -4.54757920	     -1.74943318	      0.38886150	    -16.64343274	      7.45191357	      0.53547870	      1.09522569	      6.62868149	      4.11539867	    -12.68120697
      3.08000000	    -12.25775011	     -2.68126286	      6.94391270	     -1.72981465	     -0.04167943	     -0.23715868	     37.52527781	     -3.43663116	    -12.00434959	    -12.58363687	     -3.10277134	      0.00832567	     16.17891304	     -4.59110594	     -2.18446817	      0.01750947	    -17.22881750	      6.69381763	      1.11562884	      2.26274458	      6.93297806	      4.32680256	    -12.62828629
      3.08500000	    -12.35409667	     -2.89125952	      7.04801476	     -1.72111970	     -0.04228242	     -0.23645721	     37.44307719	     -3.22654863	    -11.97706490	    -12.98891882	     -4.00189939	     -0.40542413	     16.27341301	     -4.52331976	     -2.61515328	     -0.18284554	    -17.96507541	      6.02060348	      1.71277044	      2.61696466	      7.22956525	      4.50701820	    -12.76028648
      3.09000000	    -12.42685094	     -3.16200504	      6.90139974	     -1.71228877	     -0.04284272	     -0.23546964	     37.36221878	     -2.78745616	    -11.75084098	    -13.34150119	     -5.23914682	     -1.08567384	     16.48357815	     -4.51546747	     -3.11431118	     -0.67818611	    -18.66701434	      5.18917944	      2.28906982	      3.47934975	      7.50479808	      4.79917541	    -12.58621174
      3.09500000	    -12.55228133	     -3.44923596	      6.92855724	     -1.70363269	     -0.04327771	     -0.23465267	     37.33331068	     -2.45074882	    -11.67882870	    -13.69362357	     -6.54874521	     -1.90005776	     16.36050171	     -4.32703637	     -3.62688201	     -0.91063419	    -19.51716116	      4.33482613	      2.83972747	      3.88946856	      7.83263231	      5.06412018	    -12.67471280
      3.10000000	    -12.67470807	     -3.79044661	      6.79651898	     -1.69492925	     -0.04364881	     -0.23368682	     37.33380559	     -1.95957539	    -11.43784569	    -14.05401264	     -7.96521084	     -2.88346794	     16.12873918	     -4.13021994	     -4.19552520	     -1.32124517	    -20.39844501	      3.37666950	      3.36873532	      4.40395799	      8.15669403	      5.42320775	    -12.56363126
      3.10500000	    -12.71012444	     -4.18753578	      6.57906325	     -1.68618147	     -0.04384074	     -0.23263748	     37.25935510	     -1.35045827	    -11.11763723	    -14.45059972	     -9.26982815	     -3.86333257	     15.58800894	     -4.03863764	     -4.85016669	     -1.88210477	    -21.13726500	      1.60017478	      3.57922628	      8.01798885	      8.38854338	      5.87349290	    -12.35682875
      3.11000000	    -12.90542037	     -4.54521230	      6.42519454	     -1.67762153	     -0.04409755	     -0.23168156	     37.39534374	     -0.84515938	    -10.77245689	    -14.93300138	    -10.50179955	     -4.92791635	     15.15678546	     -3.62369404	     -5.42495421	     -2.24442742	    -22.22222385	      0.48874629	      4.05005511	      8.10494730	      8.77450713	      6.24766773	    -12.26000956
      3.11500000	    -12.97020635	     -4.95711205	      6.13554073	     -1.66898532	     -0.04416053	     -0.23051968	     37.40991427	     -0.16562925	    -10.25547411	    -15.50438850	    -11.31605087	     -5.86902087	     13.39668356	     -3.37448690	     -6.09660426	     -2.82174111	    -23.18933721	     -1.26661219	      4.30589929	     10.47753364	      9.01521205	      6.71881475	    -11.99417385
      3.12000000	    -13.15543867	     -5.29822355	      5.92715684	     -1.66050565	     -0.04430160	     -0.22952546	     37.57454664	      0.36462755	     -9.77896622	    -16.12607781	    -12.10073236	     -6.85070994	     12.99788217	     -2.86702144	     -6.65708690	     -3.16620675	    -24.41638321	     -2.65246193	      4.68848760	     10.51024371	      9.36890526	      7.09619523	    -11.84647035
      3.12500000	    -13.29526392	     -5.62485133	      5.64492009	     -1.65202747	     -0.04437355	     -0.22839621	     37.69434431	      0.94964889	     -9.20846619	    -16.78823963	    -12.63481268	     -7.78807121	     12.51380115	     -2.38446292	     -7.21864850	     -3.58804951	    -25.67370095	     -4.23355738	      5.02011202	     10.77121285	      9.65698273	      7.47456239	    -11.60931238
      3.13000000	    -13.40707593	     -5.99592522	      5.28925786	     -1.64344785	     -0.04442609	     -0.22716074	     37.78787935	      1.62272900	     -8.67540875	    -17.54487772	    -12.54334318	     -8.26031412	     10.85247719	     -1.92641138	     -7.86881739	     -4.17477625	    -26.86634057	     -6.38649906	      5.20221824	     13.21309727	      9.92605011	      7.91515384	    -11.29173440
      3.13500000	    -13.52039511	     -6.25721800	      5.05341758	     -1.63515919	     -0.04439003	     -0.22610316	     37.86162254	      2.12524220	     -8.19094533	    -18.24682258	    -12.58170769	     -8.95471094	     10.40984653	     -1.34204992	     -8.34964544	     -4.40498150	    -28.25790599	     -8.28881407	      5.26911395	     13.41560391	     10.15281622	      8.22230027	    -11.11286642
      3.14000000	    -13.59468827	     -6.48732978	      4.79316539	     -1.62690817	     -0.04431004	     -0.22500187	     37.87173722	      2.62045942	     -7.73474437	    -18.93658695	    -12.40124734	     -9.49903136	     10.18141821	     -0.76029191	     -8.80440922	     -4.63782428	    -29.70084713	    -10.25203399	      5.31160424	     13.48176611	     10.32270395	      8.50505622	    -10.90329303
      3.14500000	    -13.66299646	     -6.70880117	      4.50708452	     -1.61860238	     -0.04421338	     -0.22386714	     37.84025088	      3.12299260	     -7.37045601	    -19.59102156	    -12.03219902	     -9.93205561	     10.10498062	     -0.15908207	     -9.24915830	     -4.85547690	    -31.17578688	    -12.24949999	      5.29121999	     13.38669268	     10.49218137	      8.78095890	    -10.64524207
      3.15000000	    -13.70173671	     -6.93904174	      4.22411553	     -1.61043050	     -0.04404722	     -0.22276361	     37.74238083	      3.62877252	     -7.05350137	    -20.18877058	    -11.58086766	    -10.21995156	     10.12670447	      0.47576220	     -9.69792028	     -5.00995260	    -32.72541861	    -14.22428490	      5.19125158	     13.15799070	     10.60499045	      9.07303589	    -10.39331190
